
Complete name                    : An.American.Crime.2007.avi
Format                           : AVI
File size                        : 1.37 GiB
Duration                         : 1h 33mn
Overall bit rate                 : 2 096 Kbps

Video

Format                           : MPEG-4 Visual
Codec ID/Hint                    : XviD
Duration                         : 1h 33mn
Bit rate                         : 1 637 Kbps
Width                            : 720 pixels
Height                           : 576 pixels
Display aspect ratio             : 16:9
Stream size                      : 1.07 GiB (78%)
Writing library                  : XviD 1.1.2 (UTC 2006-11-01)

Audio

Format                           : AC-3
Duration                         : 1h 33mn
Bit rate                         : 448 Kbps
Channel(s)                       : 6 channels
Channel positions                : Front: L C R, Side: L R, LFE
Sampling rate                    : 48.0 KHz
Bit depth                        : 16 bits
Stream size                      : 300 MiB (21%)


Text #1
Language                         : Swedish

Text #2
Language                         : Finnish

Text #3
Language                         : Norwegian

Text #4
Language                         : Icelandic